<?xml version='1.0' encoding='UTF-8'?>
<svg xmlns='http://www.w3.org/2000/svg' viewBox='0 0 1000 750' preserveAspectRatio='xMidYMid meet' font-family='Georgia, serif'>
<defs>

  <!-- Marcador de flecha para las aristas -->
  <marker id="flecha" viewBox="0 0 10 10" refX="9" refY="5"
          markerWidth="7" markerHeight="7" orient="auto">
    <path d="M0,0 L10,5 L0,10 z" fill="#5d4037"/>
  </marker>

  <!-- Marcador de flecha para la ruta destacada -->
  <marker id="flecha-ruta" viewBox="0 0 10 10" refX="9" refY="5"
          markerWidth="8" markerHeight="8" orient="auto">
    <path d="M0,0 L10,5 L0,10 z" fill="#e65100"/>
  </marker>

  <!-- ===== LOCALIZACIONES ===== -->

  <!-- CASTILLO -->
  <symbol id="ic-castillo" viewBox="-30 -30 60 60">
    <rect x="-20" y="-5" width="40" height="28" fill="#a1887f" stroke="#4e342e" stroke-width="1.2"/>
    <rect x="-24" y="-16" width="9" height="39" fill="#8d6e63" stroke="#4e342e" stroke-width="1.2"/>
    <rect x="15" y="-16" width="9" height="39" fill="#8d6e63" stroke="#4e342e" stroke-width="1.2"/>
    <rect x="-24" y="-20" width="3" height="5" fill="#8d6e63"/>
    <rect x="-19" y="-20" width="3" height="5" fill="#8d6e63"/>
    <rect x="15" y="-20" width="3" height="5" fill="#8d6e63"/>
    <rect x="20" y="-20" width="3" height="5" fill="#8d6e63"/>
    <rect x="-4" y="-9" width="3" height="4" fill="#a1887f"/>
    <rect x="2" y="-9" width="3" height="4" fill="#a1887f"/>
    <path d="M-6,23 L-6,10 Q-6,4 0,4 Q6,4 6,10 L6,23 Z" fill="#3e2723"/>
    <line x1="-19" y1="-20" x2="-19" y2="-28" stroke="#4e342e" stroke-width="1"/>
    <polygon points="-19,-28 -11,-25 -19,-22" fill="#c62828"/>
  </symbol>

  <!-- TABERNA -->
  <symbol id="ic-taberna" viewBox="-30 -30 60 60">
    <rect x="-18" y="-3" width="36" height="25" fill="#cd853f" stroke="#4e342e" stroke-width="1.2"/>
    <polygon points="-22,-3 0,-20 22,-3" fill="#8b4513" stroke="#4e342e" stroke-width="1.2"/>
    <rect x="-4" y="9" width="8" height="13" fill="#3e2723"/>
    <circle cx="3" cy="15" r="0.8" fill="#ffc107"/>
    <rect x="-14" y="2" width="7" height="6" fill="#fff59d" stroke="#4e342e" stroke-width="0.8"/>
    <line x1="-14" y1="5" x2="-7" y2="5" stroke="#4e342e" stroke-width="0.5"/>
    <line x1="-10.5" y1="2" x2="-10.5" y2="8" stroke="#4e342e" stroke-width="0.5"/>
    <rect x="7" y="2" width="7" height="6" fill="#fff59d" stroke="#4e342e" stroke-width="0.8"/>
    <line x1="7" y1="5" x2="14" y2="5" stroke="#4e342e" stroke-width="0.5"/>
    <line x1="10.5" y1="2" x2="10.5" y2="8" stroke="#4e342e" stroke-width="0.5"/>
    <line x1="-13" y1="-3" x2="-13" y2="-10" stroke="#4e342e"/>
    <rect x="-17" y="-15" width="8" height="6" fill="#f5deb3" stroke="#4e342e" stroke-width="0.8"/>
  </symbol>

  <!-- BOSQUE -->
  <symbol id="ic-bosque" viewBox="-30 -30 60 60">
    <polygon points="-13,20 -22,-3 -4,-3" fill="#1b5e20" stroke="#0d3311" stroke-width="0.8"/>
    <polygon points="-13,7 -20,-13 -6,-13" fill="#2e7d32" stroke="#0d3311" stroke-width="0.8"/>
    <polygon points="-13,-3 -18,-22 -8,-22" fill="#388e3c" stroke="#0d3311" stroke-width="0.8"/>
    <rect x="-14" y="17" width="2" height="6" fill="#5d4037"/>
    <polygon points="0,23 -10,-6 10,-6" fill="#1b5e20" stroke="#0d3311" stroke-width="0.8"/>
    <polygon points="0,8 -8,-18 8,-18" fill="#2e7d32" stroke="#0d3311" stroke-width="0.8"/>
    <polygon points="0,-6 -6,-25 6,-25" fill="#388e3c" stroke="#0d3311" stroke-width="0.8"/>
    <rect x="-1" y="20" width="2" height="6" fill="#5d4037"/>
    <polygon points="13,20 4,-3 22,-3" fill="#1b5e20" stroke="#0d3311" stroke-width="0.8"/>
    <polygon points="13,7 6,-13 20,-13" fill="#2e7d32" stroke="#0d3311" stroke-width="0.8"/>
    <rect x="12" y="17" width="2" height="6" fill="#5d4037"/>
  </symbol>

  <!-- CRIPTA -->
  <symbol id="ic-cripta" viewBox="-30 -30 60 60">
    <path d="M-20,23 L-20,-5 Q-20,-18 -10,-18 L10,-18 Q20,-18 20,-5 L20,23 Z"
          fill="#9e9e9e" stroke="#424242" stroke-width="1.2"/>
    <rect x="-1.8" y="-12" width="3.6" height="16" fill="#424242"/>
    <rect x="-6" y="-8" width="12" height="3.5" fill="#424242"/>
    <path d="M-7,23 L-7,11 Q-7,5 0,5 Q7,5 7,11 L7,23 Z" fill="#212121"/>
    <circle cx="-12" cy="-3" r="2" fill="#424242"/>
    <circle cx="12" cy="-3" r="2" fill="#424242"/>
  </symbol>

  <!-- MAZMORRA -->
  <symbol id="ic-mazmorra" viewBox="-30 -30 60 60">
    <path d="M-25,23 Q-25,-10 0,-22 Q25,-10 25,23 Z"
          fill="#6d4c41" stroke="#3e2723" stroke-width="1.2"/>
    <path d="M-11,23 Q-11,2 0,-4 Q11,2 11,23 Z" fill="#000"/>
    <polygon points="-13,-2 -10,-13 -7,-2" fill="#fff" opacity="0.85"/>
    <polygon points="-4,-1 -1,-12 2,-1" fill="#fff" opacity="0.85"/>
    <polygon points="5,-2 8,-13 11,-2" fill="#fff" opacity="0.85"/>
    <polygon points="-3,22 0,15 3,22" fill="#fff" opacity="0.85"/>
    <polygon points="-8,22 -6,17 -4,22" fill="#fff" opacity="0.85"/>
    <polygon points="4,22 6,17 8,22" fill="#fff" opacity="0.85"/>
  </symbol>

  <!-- TEMPLO -->
  <symbol id="ic-templo" viewBox="-30 -30 60 60">
    <rect x="-25" y="20" width="50" height="5" fill="#9e9e9e" stroke="#424242" stroke-width="1.2"/>
    <rect x="-22" y="17" width="44" height="3" fill="#bdbdbd" stroke="#424242" stroke-width="0.8"/>
    <rect x="-20" y="-3" width="6" height="20" fill="#eeeeee" stroke="#9e9e9e" stroke-width="0.8"/>
    <rect x="-10" y="-3" width="6" height="20" fill="#eeeeee" stroke="#9e9e9e" stroke-width="0.8"/>
    <rect x="4" y="-3" width="6" height="20" fill="#eeeeee" stroke="#9e9e9e" stroke-width="0.8"/>
    <rect x="14" y="-3" width="6" height="20" fill="#eeeeee" stroke="#9e9e9e" stroke-width="0.8"/>
    <rect x="-22" y="-7" width="44" height="4" fill="#bdbdbd" stroke="#424242" stroke-width="0.8"/>
    <polygon points="-25,-7 0,-22 25,-7" fill="#cfd8dc" stroke="#424242" stroke-width="1.2"/>
    <circle cx="0" cy="-13" r="2.5" fill="#ffd54f" stroke="#f57f17" stroke-width="0.8"/>
  </symbol>

  <!-- PUEBLO -->
  <symbol id="ic-pueblo" viewBox="-30 -30 60 60">
    <rect x="-23" y="5" width="14" height="18" fill="#a0522d" stroke="#4e342e" stroke-width="1"/>
    <polygon points="-24,5 -16,-4 -8,5" fill="#8b4513" stroke="#4e342e" stroke-width="1"/>
    <rect x="-18" y="15" width="4" height="8" fill="#3e2723"/>
    <rect x="-7" y="-2" width="16" height="25" fill="#cd853f" stroke="#4e342e" stroke-width="1"/>
    <polygon points="-8,-2 1,-15 10,-2" fill="#8b4513" stroke="#4e342e" stroke-width="1"/>
    <rect x="-1" y="14" width="5" height="9" fill="#3e2723"/>
    <rect x="-4" y="3" width="4" height="4" fill="#fff59d" stroke="#4e342e" stroke-width="0.5"/>
    <rect x="11" y="8" width="12" height="15" fill="#a0522d" stroke="#4e342e" stroke-width="1"/>
    <polygon points="10,8 17,0 24,8" fill="#8b4513" stroke="#4e342e" stroke-width="1"/>
    <rect x="15" y="15" width="4" height="8" fill="#3e2723"/>
  </symbol>

  <!-- MONTANA -->
  <symbol id="ic-montana" viewBox="-30 -30 60 60">
    <polygon points="-25,23 -8,-15 8,23" fill="#757575" stroke="#424242" stroke-width="1.2"/>
    <polygon points="2,23 6,-22 25,23" fill="#616161" stroke="#424242" stroke-width="1.2"/>
    <polygon points="-8,-15 -3,-4 -14,-4" fill="#fff" opacity="0.92"/>
    <polygon points="6,-22 12,-6 0,-6" fill="#fff" opacity="0.92"/>
  </symbol>

  <!-- LAGO -->
  <symbol id="ic-lago" viewBox="-30 -30 60 60">
    <ellipse cx="0" cy="6" rx="25" ry="15" fill="#90a955" stroke="#558b2f" stroke-width="1"/>
    <ellipse cx="0" cy="6" rx="21" ry="11" fill="#4a90e2"/>
    <ellipse cx="0" cy="3" rx="18" ry="8" fill="#5fa3e8"/>
    <path d="M-15,3 Q-12,1 -9,3 T-3,3" stroke="#fff" fill="none" stroke-width="1.2" opacity="0.9"/>
    <path d="M3,9 Q6,7 9,9 T15,9" stroke="#fff" fill="none" stroke-width="1.2" opacity="0.9"/>
    <line x1="17" y1="-6" x2="15" y2="6" stroke="#558b2f" stroke-width="1.8"/>
    <ellipse cx="16" cy="-6" rx="1.5" ry="4" fill="#33691e"/>
  </symbol>

  <!-- TORRE -->
  <symbol id="ic-torre" viewBox="-30 -30 60 60">
    <rect x="-12" y="10" width="24" height="13" fill="#9e9e9e" stroke="#424242" stroke-width="1.2"/>
    <rect x="-9" y="-14" width="18" height="24" fill="#bdbdbd" stroke="#424242" stroke-width="1.2"/>
    <rect x="-12" y="-17" width="24" height="4" fill="#9e9e9e" stroke="#424242" stroke-width="1.2"/>
    <rect x="-12" y="-20" width="3" height="3" fill="#9e9e9e"/>
    <rect x="-6" y="-20" width="3" height="3" fill="#9e9e9e"/>
    <rect x="0" y="-20" width="3" height="3" fill="#9e9e9e"/>
    <rect x="6" y="-20" width="3" height="3" fill="#9e9e9e"/>
    <rect x="-2.5" y="-7" width="5" height="8" fill="#fff59d" stroke="#4e342e" stroke-width="0.5"/>
    <line x1="-2.5" y1="-3" x2="2.5" y2="-3" stroke="#4e342e" stroke-width="0.5"/>
    <line x1="0" y1="-7" x2="0" y2="1" stroke="#4e342e" stroke-width="0.5"/>
    <line x1="0" y1="-20" x2="0" y2="-28" stroke="#424242" stroke-width="1"/>
    <polygon points="0,-28 9,-25 0,-22" fill="#c62828"/>
  </symbol>

  <!-- ===== GUARDIANES ===== -->

  <!-- SLIME (G bajo) -->
  <symbol id="ic-slime" viewBox="-15 -15 30 30">
    <ellipse cx="0" cy="9" rx="11" ry="2" fill="#000" opacity="0.2"/>
    <path d="M-10,8 Q-12,-2 -8,-6 Q0,-11 8,-6 Q12,-2 10,8 Z"
          fill="#66bb6a" stroke="#1b5e20" stroke-width="1"/>
    <path d="M-8,-3 Q-6,-5 -4,-3" stroke="#fff" fill="none" stroke-width="0.8" opacity="0.7"/>
    <ellipse cx="-3" cy="0" rx="1.5" ry="2" fill="#000"/>
    <ellipse cx="3" cy="0" rx="1.5" ry="2" fill="#000"/>
    <circle cx="-3" cy="-1" r="0.4" fill="#fff"/>
    <circle cx="3" cy="-1" r="0.4" fill="#fff"/>
    <path d="M-3,4 Q0,6 3,4" stroke="#000" fill="none" stroke-width="0.8"/>
  </symbol>

  <!-- GOBLIN (G medio) -->
  <symbol id="ic-goblin" viewBox="-15 -15 30 30">
    <ellipse cx="0" cy="11" rx="9" ry="1.8" fill="#000" opacity="0.2"/>
    <rect x="-5" y="2" width="10" height="9" fill="#ef6c00" stroke="#bf360c" stroke-width="0.8"/>
    <line x1="-5" y1="3" x2="-9" y2="7" stroke="#ef6c00" stroke-width="2.2" stroke-linecap="round"/>
    <line x1="5" y1="3" x2="9" y2="7" stroke="#ef6c00" stroke-width="2.2" stroke-linecap="round"/>
    <circle cx="0" cy="-3" r="6.5" fill="#fb8c00" stroke="#bf360c" stroke-width="0.8"/>
    <polygon points="-6,-5 -10,-2 -5,-1" fill="#fb8c00" stroke="#bf360c" stroke-width="0.8"/>
    <polygon points="6,-5 10,-2 5,-1" fill="#fb8c00" stroke="#bf360c" stroke-width="0.8"/>
    <circle cx="-2.5" cy="-3" r="1.3" fill="#fff"/>
    <circle cx="2.5" cy="-3" r="1.3" fill="#fff"/>
    <circle cx="-2.5" cy="-3" r="0.7" fill="#000"/>
    <circle cx="2.5" cy="-3" r="0.7" fill="#000"/>
    <path d="M-3,1 L-2,3 L0,1 L2,3 L3,1" stroke="#000" fill="none" stroke-width="0.8"/>
  </symbol>

  <!-- DRAGON (G alto) -->
  <symbol id="ic-dragon" viewBox="-15 -15 30 30">
    <ellipse cx="0" cy="11" rx="12" ry="2" fill="#000" opacity="0.2"/>
    <ellipse cx="-2" cy="5" rx="10" ry="5" fill="#c62828" stroke="#7f0000" stroke-width="0.8"/>
    <path d="M-4,3 Q-12,-7 -14,2 Q-9,4 -4,5 Z" fill="#a01a1a" stroke="#7f0000" stroke-width="0.8"/>
    <path d="M0,3 Q-3,-5 6,-7 Q9,-3 5,3 Z" fill="#a01a1a" stroke="#7f0000" stroke-width="0.8"/>
    <path d="M6,5 Q11,1 12,-5 Q9,-9 5,-7 Q3,-3 4,2 Z" fill="#c62828" stroke="#7f0000" stroke-width="0.8"/>
    <circle cx="10" cy="-4" r="1.2" fill="#fff"/>
    <circle cx="10" cy="-4" r="0.6" fill="#000"/>
    <polygon points="13,-3 16,-2 13,-1" fill="#c62828" stroke="#7f0000" stroke-width="0.5"/>
    <path d="M12,-1 Q15,-2 17,1 Q14,0 12,1 Z" fill="#ff9800"/>
    <path d="M-10,5 Q-14,7 -15,4 Q-13,6 -10,7 Z" fill="#c62828" stroke="#7f0000" stroke-width="0.5"/>
    <polygon points="-5,-1 -3,-4 -1,-1" fill="#7f0000"/>
    <polygon points="0,-2 2,-5 4,-2" fill="#7f0000"/>
  </symbol>

</defs>
  <defs>
    <radialGradient id='pergamino' cx='50%' cy='50%' r='75%'>
      <stop offset='0%' stop-color='#ffffff'/>
      <stop offset='100%' stop-color='#ffffff'/>
    </radialGradient>
  </defs>
  <rect width='1000' height='750' fill='url(#pergamino)'/>
  <rect x='15' y='15' width='970' height='720' rx='12' fill='none' stroke='#6d4c41' stroke-width='3' opacity='0.5'/>
  <rect x='22' y='22' width='956' height='706' rx='8' fill='none' stroke='#6d4c41' stroke-width='1' opacity='0.4'/>
  <text x='500' y='55' text-anchor='middle' font-size='32' font-weight='bold' fill='#3e2723' style='letter-spacing: 2px'>~ Mapa de la Aventura ~</text>
  <text x='500' y='80' text-anchor='middle' font-size='13' fill='#5d4037' font-style='italic'></text>
  <g id='caminos'>
    <path d='M 490.111,195.434 Q 465.606,393.825 368.82,568.73' fill='none' stroke='#5d4037' stroke-width='2.2' stroke-linecap='round' marker-end='url(#flecha)' opacity='0.85'/>
    <g>
      <rect x='447.185' y='382.063' width='26' height='18' rx='5' fill='#fff8e1' stroke='#5d4037' stroke-width='1'/>
      <text x='460.185' y='396.063' text-anchor='middle' font-family='Georgia, serif' font-size='12' font-weight='bold' fill='#3e2723'>7</text>
    </g>
    <path d='M 696.254,330.836 Q 500,368.836 303.746,330.836' fill='none' stroke='#5d4037' stroke-width='2.2' stroke-linecap='round' marker-end='url(#flecha)' opacity='0.85'/>
    <g>
      <rect x='487' y='353.136' width='26' height='18' rx='5' fill='#fff8e1' stroke='#5d4037' stroke-width='1'/>
      <text x='500' y='367.136' text-anchor='middle' font-family='Georgia, serif' font-size='12' font-weight='bold' fill='#3e2723'>10</text>
    </g>
    <path d='M 631.18,568.73 Q 534.394,393.825 509.889,195.434' fill='none' stroke='#5d4037' stroke-width='2.2' stroke-linecap='round' marker-end='url(#flecha)' opacity='0.85'/>
    <g>
      <rect x='526.815' y='382.063' width='26' height='18' rx='5' fill='#fff8e1' stroke='#5d4037' stroke-width='1'/>
      <text x='539.815' y='396.063' text-anchor='middle' font-family='Georgia, serif' font-size='12' font-weight='bold' fill='#3e2723'>4</text>
    </g>
    <path d='M 390.932,599.164 Q 500,561.164 609.068,599.164' fill='none' stroke='#5d4037' stroke-width='2.2' stroke-linecap='round' marker-end='url(#flecha)' opacity='0.85'/>
    <g>
      <rect x='487' y='556.864' width='26' height='18' rx='5' fill='#fff8e1' stroke='#5d4037' stroke-width='1'/>
      <text x='500' y='570.864' text-anchor='middle' font-family='Georgia, serif' font-size='12' font-weight='bold' fill='#3e2723'>6</text>
    </g>
    <path d='M 349.043,568.73 Q 279.199,476.743 281.635,361.27' fill='none' stroke='#5d4037' stroke-width='2.2' stroke-linecap='round' marker-end='url(#flecha)' opacity='0.85'/>
    <g>
      <rect x='271.62' y='464.981' width='26' height='18' rx='5' fill='#fff8e1' stroke='#5d4037' stroke-width='1'/>
      <text x='284.62' y='478.981' text-anchor='middle' font-family='Georgia, serif' font-size='12' font-weight='bold' fill='#3e2723'>2</text>
    </g>
    <path d='M 297.635,312.027 Q 363.537,217.175 474.111,183.809' fill='none' stroke='#5d4037' stroke-width='2.2' stroke-linecap='round' marker-end='url(#flecha)' opacity='0.85'/>
    <g>
      <rect x='353.888' y='211.787' width='26' height='18' rx='5' fill='#fff8e1' stroke='#5d4037' stroke-width='1'/>
      <text x='366.888' y='225.787' text-anchor='middle' font-family='Georgia, serif' font-size='12' font-weight='bold' fill='#3e2723'>5</text>
    </g>
    <path d='M 303.746,330.836 Q 500,292.836 696.254,330.836' fill='none' stroke='#5d4037' stroke-width='2.2' stroke-linecap='round' marker-end='url(#flecha)' opacity='0.85'/>
    <g>
      <rect x='487' y='288.536' width='26' height='18' rx='5' fill='#fff8e1' stroke='#5d4037' stroke-width='1'/>
      <text x='500' y='302.536' text-anchor='middle' font-family='Georgia, serif' font-size='12' font-weight='bold' fill='#3e2723'>1</text>
    </g>
  </g>
  <g id='caminos-ruta'>
    <path d='M 525.889,183.809 Q 636.463,217.175 702.365,312.027' fill='none' stroke='#e65100' stroke-width='4.5' stroke-linecap='round' marker-end='url(#flecha-ruta)' opacity='1'/>
    <g>
      <rect x='620.112' y='211.787' width='26' height='18' rx='5' fill='#ffe082' stroke='#e65100' stroke-width='1.8'/>
      <text x='633.112' y='225.787' text-anchor='middle' font-family='Georgia, serif' font-size='12' font-weight='bold' fill='#3e2723'>3</text>
    </g>
    <path d='M 718.365,361.27 Q 720.801,476.743 650.957,568.73' fill='none' stroke='#e65100' stroke-width='4.5' stroke-linecap='round' marker-end='url(#flecha-ruta)' opacity='1'/>
    <g>
      <rect x='702.38' y='464.981' width='26' height='18' rx='5' fill='#ffe082' stroke='#e65100' stroke-width='1.8'/>
      <text x='715.38' y='478.981' text-anchor='middle' font-family='Georgia, serif' font-size='12' font-weight='bold' fill='#3e2723'>2</text>
    </g>
    <path d='M 615.18,580.355 Q 434.072,495.743 297.635,349.645' fill='none' stroke='#e65100' stroke-width='4.5' stroke-linecap='round' marker-end='url(#flecha-ruta)' opacity='1'/>
    <g>
      <rect x='424.422' y='481.131' width='26' height='18' rx='5' fill='#ffe082' stroke='#e65100' stroke-width='1.8'/>
      <text x='437.422' y='495.131' text-anchor='middle' font-family='Georgia, serif' font-size='12' font-weight='bold' fill='#3e2723'>1</text>
    </g>
  </g>
  <g id='localizaciones'>
    <circle cx='500' cy='165' r='38' fill='#ffe082' opacity='0.55'/>
    <circle cx='500' cy='165' r='38' fill='none' stroke='#ff8f00' stroke-width='3' stroke-dasharray='5,3' opacity='0.85'/>
    <use href='#ic-castillo' x='470' y='135' width='60' height='60'/>
    <circle cx='524' cy='141' r='13' fill='#3e2723' stroke='#fff8e1' stroke-width='2.5'/>
    <text x='524' y='146' text-anchor='middle' font-family='Georgia, serif' font-size='14' font-weight='bold' fill='#fff8e1'>1</text>
    <use href='#ic-slime' x='458' y='177' width='30' height='30'/>
    <text x='500' y='213' text-anchor='middle' font-family='Georgia, serif' font-size='11' fill='#3e2723' font-style='italic'>G = 1</text>
    <circle cx='728.254' cy='330.836' r='38' fill='#ffe082' opacity='0.55'/>
    <circle cx='728.254' cy='330.836' r='38' fill='none' stroke='#ff8f00' stroke-width='3' stroke-dasharray='5,3' opacity='0.85'/>
    <use href='#ic-taberna' x='698.254' y='300.836' width='60' height='60'/>
    <circle cx='752.254' cy='306.836' r='13' fill='#3e2723' stroke='#fff8e1' stroke-width='2.5'/>
    <text x='752.254' y='311.836' text-anchor='middle' font-family='Georgia, serif' font-size='14' font-weight='bold' fill='#fff8e1'>2</text>
    <use href='#ic-goblin' x='686.254' y='342.836' width='30' height='30'/>
    <text x='728.254' y='378.836' text-anchor='middle' font-family='Georgia, serif' font-size='11' fill='#3e2723' font-style='italic'>G = 3</text>
    <circle cx='641.068' cy='599.164' r='38' fill='#ffe082' opacity='0.55'/>
    <circle cx='641.068' cy='599.164' r='38' fill='none' stroke='#ff8f00' stroke-width='3' stroke-dasharray='5,3' opacity='0.85'/>
    <use href='#ic-bosque' x='611.068' y='569.164' width='60' height='60'/>
    <circle cx='665.068' cy='575.164' r='13' fill='#3e2723' stroke='#fff8e1' stroke-width='2.5'/>
    <text x='665.068' y='580.164' text-anchor='middle' font-family='Georgia, serif' font-size='14' font-weight='bold' fill='#fff8e1'>3</text>
    <use href='#ic-slime' x='599.068' y='611.164' width='30' height='30'/>
    <text x='641.068' y='647.164' text-anchor='middle' font-family='Georgia, serif' font-size='11' fill='#3e2723' font-style='italic'>G = 2</text>
    <use href='#ic-cripta' x='328.932' y='569.164' width='60' height='60'/>
    <circle cx='382.932' cy='575.164' r='13' fill='#3e2723' stroke='#fff8e1' stroke-width='2.5'/>
    <text x='382.932' y='580.164' text-anchor='middle' font-family='Georgia, serif' font-size='14' font-weight='bold' fill='#fff8e1'>4</text>
    <use href='#ic-goblin' x='316.932' y='611.164' width='30' height='30'/>
    <text x='358.932' y='647.164' text-anchor='middle' font-family='Georgia, serif' font-size='11' fill='#3e2723' font-style='italic'>G = 4</text>
    <circle cx='271.746' cy='330.836' r='38' fill='#ffe082' opacity='0.55'/>
    <circle cx='271.746' cy='330.836' r='38' fill='none' stroke='#ff8f00' stroke-width='3' stroke-dasharray='5,3' opacity='0.85'/>
    <use href='#ic-mazmorra' x='241.746' y='300.836' width='60' height='60'/>
    <circle cx='295.746' cy='306.836' r='13' fill='#3e2723' stroke='#fff8e1' stroke-width='2.5'/>
    <text x='295.746' y='311.836' text-anchor='middle' font-family='Georgia, serif' font-size='14' font-weight='bold' fill='#fff8e1'>5</text>
    <use href='#ic-slime' x='229.746' y='342.836' width='30' height='30'/>
    <text x='271.746' y='378.836' text-anchor='middle' font-family='Georgia, serif' font-size='11' fill='#3e2723' font-style='italic'>G = 2</text>
  </g>
  <g id='leyenda'>
    <rect x='20' y='600' width='220' height='130' rx='8' fill='#fff8e1' stroke='#5d4037' stroke-width='1.5' opacity='0.95'/>
    <text x='130' y='622' text-anchor='middle' font-family='Georgia, serif' font-size='14' font-weight='bold' fill='#3e2723'>Guardianes</text>
    <use href='#ic-slime' x='35' y='632' width='28' height='28'/>
    <text x='75' y='652' font-family='Georgia, serif' font-size='12' fill='#3e2723'>Slime (G &lt;= 2)</text>
    <use href='#ic-goblin' x='35' y='662' width='28' height='28'/>
    <text x='75' y='682' font-family='Georgia, serif' font-size='12' fill='#3e2723'>Goblin (3 &lt;= G &lt;= 5)</text>
    <use href='#ic-dragon' x='35' y='692' width='28' height='28'/>
    <text x='75' y='712' font-family='Georgia, serif' font-size='12' fill='#3e2723'>Dragon (G &gt;= 6)</text>
  </g>
  <g id='panel-ruta'>
    <rect x='760' y='105' width='220' height='95' rx='8' fill='#fff8e1' stroke='#e65100' stroke-width='2' opacity='0.97'/>
    <text x='870' y='127' text-anchor='middle' font-family='Georgia, serif' font-size='14' font-weight='bold' fill='#bf360c'>Ruta 1 &#8594; 5</text>
    <text x='870' y='153' text-anchor='middle' font-family='Georgia, serif' font-size='13' fill='#3e2723'>1 > 2 > 3 > 5</text>
    <text x='870' y='181' text-anchor='middle' font-family='Georgia, serif' font-size='13' font-style='italic' fill='#3e2723'>Coste total: 11</text>
  </g>
</svg>
